<svg xmlns="http://www.w3.org/2000/svg" width="33" height="32" viewBox="0 0 33 32">
  <g id="facebook" transform="translate(-963 -2777)">
    <rect id="Retângulo_33" data-name="Retângulo 33" width="33" height="32" transform="translate(963 2777)" fill="none"/>
    <path id="facebook-2" data-name="facebook" d="M12.276,31.6a.4.4,0,0,0,.4.4h5.745a.4.4,0,0,0,.4-.4V15.874h4.165a.4.4,0,0,0,.4-.37l.4-4.736a.4.4,0,0,0-.4-.437H18.827V6.97a1.426,1.426,0,0,1,1.426-1.427h3.21a.4.4,0,0,0,.4-.4V.4a.4.4,0,0,0-.4-.4H18.04a5.763,5.763,0,0,0-5.763,5.763v4.568H9.4a.4.4,0,0,0-.4.4v4.738a.4.4,0,0,0,.4.4h2.873Z" transform="translate(963 2777)" fill="#ff9317" fill-rule="evenodd"/>
  </g>
</svg>
