<svg xmlns="http://www.w3.org/2000/svg" width="200" height="124.192" viewBox="0 0 200 124.192"><path d="M9.25,10.189c3.131-.124,10.767-.375,14.649-1.252-.126,1.629-.377,6.636-.377,16.151v4.257c3.505-2.88,6.386-4.383,9.891-4.383a10.311,10.311,0,0,1,9.014,4.633,19.643,19.643,0,0,1,2.5,10.142c0,11.642-5.508,18.278-16.652,18.278a21,21,0,0,1-8.764-2.129c-1.5.5-3.505,1.5-5.509,2.129l-.627-.377c.126-3.381.126-9.765.126-18.4V23.209c0-4.006-.126-6.76-.25-9.138-.126-1.629-.5-1.879-4.257-1.879ZM28.28,55.635c4.257,0,6.26-5.134,6.26-14.649a20.677,20.677,0,0,0-1.753-9.264,4.514,4.514,0,0,0-4.006-2.5,5.765,5.765,0,0,0-4.633,2.754c-.625.877-.875,1.629-.875,11.518,0,8.139.377,8.389.877,9.39A4.507,4.507,0,0,0,28.28,55.635Zm38.559,1.629c-2.63,0-5.258-.252-9.39-.252-4.381,0-6.51.252-8.637.252V55.134c3.505-.126,4.006-.751,4.132-2.129.124-1.5.25-3.88.25-7.762V37.231c0-3.255,0-5.883-.126-7.011s-.627-1.5-3.882-1.376V26.714c4.383-.375,9.641-.5,13.9-1.376-.126,1.629-.25,4.633-.25,11.518V45.5c0,4.006.126,5.759.25,7.512s.627,2,3.756,2.378Zm-9.39-46.448c3.257,0,5.134,1.879,5.134,5.258,0,2.88-2.129,4.884-5.384,4.884a4.666,4.666,0,0,1-4.882-4.884,4.962,4.962,0,0,1,5.134-5.258Zm12.646-.627A92.315,92.315,0,0,0,83.741,8.937q-.254,7.759-.252,15.524v15.65C85.869,39.484,91,33.224,93,29.595c.377-.751.377-1.128-.625-1.128l-2.754-.25V26.089c4.633.126,9.39-.126,14.148-.377v2.129c-3.505.377-4.884.627-6.262,1.753a58.578,58.578,0,0,0-6.009,6.26C93,38.985,99.265,50.5,101.643,53.632a3.49,3.49,0,0,0,3.131,1.5l1.751.126-.124,2.127a92.8,92.8,0,0,0-13.9.751C91,54.634,86.494,46.12,85.117,43.49c-.751-1.376-1.128-1.877-1.629-1.753,0,5.134-.124,7.638.126,11.267.126,1.629.5,2.129,3.882,2.253v2.129c-2.38,0-4.884-.25-9.014-.25-4.884,0-7.011.25-8.89.25V55.258c3.255-.124,3.756-.749,3.882-2,.124-1.5.248-4.757.248-11.267V25.839c0-5.134,0-9.014-.124-12.269q0-1.127-1.5-1.128H69.968Zm-30.171,78C37.794,94.946,33.664,98.2,26.777,98.2c-5.885,0-9.641-1.629-12.269-5.134-2-2.628-3-6.51-3-10.891,0-9.641,5.885-17.026,16.652-17.026,6.51,0,11.267,3,11.267,7.888,0,3.379-2.754,4.755-5.008,4.755a5.681,5.681,0,0,1-2.5-.625,1.956,1.956,0,0,1-.877-2.253,18.859,18.859,0,0,0,.377-2.63c0-3.129-1.128-4.631-3.505-4.631-3.882,0-5.885,5.635-5.885,13.4,0,3.129.377,6.634,1.5,8.762,1.252,2.88,3.255,4.507,6.26,4.507,3.756,0,6.135-2.127,7.888-7.011Zm7.135-9.138a69.945,69.945,0,0,0-.377-8.766,1.319,1.319,0,0,0-1.5-1.25H42.926V66.9c3.756-.126,8.89-.377,12.519-1.5l.377.25c.25,1.5.5,5.134.627,7.387H56.7c1.631-4.383,3.882-7.888,8.515-7.888a4.718,4.718,0,0,1,4.633,5.008c0,4.132-3.131,5.384-4.383,5.384a2.424,2.424,0,0,1-2.5-1.254c-.625-1.376-1-2.127-2.251-2.127-1.378,0-2.129,1.252-3,3.255a13.292,13.292,0,0,0-.627,4.507c0,7.137,0,11.143.126,12.9s.749,2.251,5.757,2.378l-.124,2.129c-3.505-.126-6.636-.252-10.266-.252-3.756,0-6.51.126-9.641.252L43.3,95.2c3-.126,3.756-.5,3.756-1.753.126-1.753.25-5.134.25-9.014V79.045h-.25ZM89.5,73.288c0-3.758-1.254-5.761-3.758-5.761-2.878,0-4.255,1.629-4.255,4.633a13.975,13.975,0,0,0,.248,2.38,1.783,1.783,0,0,1-.749,1.877,6.843,6.843,0,0,1-3.505,1.128c-2.38,0-4.383-1.13-4.383-3.882,0-4.006,5.885-8.513,14.148-8.513,6.758,0,9.763,2.754,10.891,4.507a6.291,6.291,0,0,1,1,3.381v18.4c0,2.129.627,2.63,1.378,2.63,1,0,2.127-1.629,2.628-4.383l2.129,1c-1.128,5.384-4.383,7.638-8.89,7.638-3.882,0-6.009-1.629-6.636-4.884-3,3-6.133,4.884-9.388,4.884-5.258,0-8.764-3.505-8.764-9.266,0-3.505,1.5-5.508,4.132-6.634,4.255-1.879,10.64-3.756,13.769-6.009V73.286Zm-7.888,13.9c0,2.754,1.128,5.759,3.882,5.759,2,0,2.878-1.252,3.505-2.5a9.3,9.3,0,0,0,.375-3V78.921C88,79.8,85.869,80.8,84.24,81.8,82.738,82.8,81.612,84.053,81.612,87.184ZM106.4,66.277l4.006.124v-2c.126-5.258,1.378-9.14,4.132-11.894a12.372,12.372,0,0,1,9.138-3.756c5.134,0,7.888,2.5,7.888,5.759,0,2.38-2,4.006-4.759,4.006a2.366,2.366,0,0,1-2.5-2.5c0-2.628-.375-4.755-2.251-4.755-1.254,0-2,1.126-2.255,3.255-.248,2,.126,5.759.377,11.642h6.135l-.377,2.5-5.759.377c-.126,2.378-.126,6.51-.126,11.392,0,4.633,0,8.764.126,12.019.126,1.629.377,2.253,1.753,2.38a33.379,33.379,0,0,0,3.381.248l-.254,2.129c-2.378,0-6.133-.25-9.388-.25-3.381,0-7.387.25-9.641.25l.126-2.129c3.255-.124,3.756-.5,3.882-1.877.248-2.129.248-5.384.248-9.765V68.906l-4.255-.25.375-2.38Z" transform="translate(9.028 8.965)" fill="#ff9317"/><path d="M89.909,43.143l-.252,2.378-7.636.5c0,2.63-.126,6.51-.126,11.768,0,5.509,0,9.264.252,11.518.124,1.629.749,2.38,2,2.38,2.628,0,4.255-2.88,4.882-5.508h1l.877,2.878c-1.5,3.632-5.26,6.135-10.769,6.135-3,0-5.633-1-6.885-2.5a6.9,6.9,0,0,1-1.252-4.507c0-5.134.25-16.652.25-22.16l-4.006-.377.25-2.378h3.756c.126-2.38.126-5.134.126-7.638A34.6,34.6,0,0,0,81.771,32l.751.126q-.328,5.565-.377,11.141h7.764v-.126Z" transform="translate(68.223 32.099)" fill="#ff9317"/><path d="M190,10.015V114.176H10V10.015ZM200,0H0V124.192H200Z" fill="#ff9317"/></svg>